<svg xmlns="http://www.w3.org/2000/svg" width="1000" height="666.5" viewBox="0 0 2000 1333"><defs><style>.cls-1{fill:#fff;fill-rule:evenodd}</style></defs><path class="cls-1" d="M1330 953.1c-147.28 0-266.67-119.361-266.67-266.6S1182.72 419.9 1330 419.9s266.67 119.361 266.67 266.6S1477.28 953.1 1330 953.1zm0-471.549c-113.22 0-205 91.759-205 204.949s91.78 204.949 205 204.949 205-91.759 205-204.949-91.78-204.954-205-204.954zm-202.57-2.5q.885-9.467.9-19.165a204.6 204.6 0 0 0-81.66-163.713v-72.7c77.73 40.62 132.96 118.426 142.01 209.814a291.133 291.133 0 0 0-61.25 45.763zm-92.57 196.087l1.19-2.373a22.617 22.617 0 0 1 11.69 6.28c-20.02 40.518-51.55 56.388-75.868 64.205 4.231 6.394 6.423 15.895 3.648 26.16l-10.331 38.022c-14.7 54.119-60.361 37.238-49.669-1.394l57.473-207.613c18.194-65.6 76.847-63.424 60.777-5.6l-22.39 80.362c-7.15 25.33-24.291 44.974-39.169 58.359 19.718-6.63 45.139-21.183 62.649-56.409zM955.052 748.1l-2.179.562-15.958 56.249c-5.853 20.35 5.679 22.023 10.524 4.772l11.512-42.456c2.649-10.749.903-17.527-3.899-19.127zm38.515-80.9l21.683-78.114c6.48-25.931-11.2-22.407-18.706 4.562l-38.059 134.73c17.603-13.833 28.877-39.193 35.082-61.178zm-36.9-320.616c-50 29.992-113.333 59.985-143.333 59.985S720 389.9 693.333 363.242c0 0-60-39.99 6.667-56.652s256.666 0 256.666 0 50.004 9.997 0 39.99zm-40 339.915c0 147.239-119.391 266.6-266.667 266.6S383.333 833.734 383.333 686.5 502.724 419.9 650 419.9s266.667 119.356 266.667 266.6zM650 481.546c-113.218 0-205 91.759-205 204.949s91.782 204.949 205 204.949S855 799.685 855 686.5s-91.782-204.954-205-204.954zM443.333 1089.73h-60V800.591a290.364 290.364 0 0 0 60 89.27v199.869zm43.986-89.58h7.865q7.084 0 10.4 2.91t3.319 8.97q0 6.03-3.96 9.18t-11.938 3.15h-5.69v-24.21zm31.322-7.775q-7.726-6.385-22.564-6.386h-26.051v81.531h17.293v-29h7.419q15.173 0 23.4-6.97t8.229-20.13q.001-12.66-7.726-19.045zm99.772 75.145v-14.27h-33.08v-67.261H568.04v81.531h50.373zm109 0l-28.9-81.865h-21.134l-28.785 81.865h18.632l5.913-19.4h29.733l5.913 19.4h18.632zm-49.927-33.9q8.7-28.17 10.543-35.3c.3 1.338.79 3.165 1.479 5.465s3.765 12.25 9.232 29.84h-21.25zm158.819-47.631h-15.56v38.591q0 6.585.837 22.48h-.391l-35.422-61.071h-21.812v81.531h15.452v-38.36q0-6.975-1.06-23.32h.5l35.478 61.68h21.979v-81.531zm63.819 49.3H927.8v-14.11h-27.672v-21.03h29.732v-14.16h-46.746v81.531h17.014v-32.23zm136.032-39.764q-9.96-10.819-28.76-10.819t-28.866 10.735q-10.069 10.737-10.069 31.088 0 20.37 10.041 31.24t28.784 10.87q18.75 0 28.78-10.87 10.05-10.875 10.05-31.12.004-20.309-9.956-31.123zm-44.322 10.514q5.243-6.945 15.562-6.945 20.58 0 20.59 27.555 0 27.495-20.7 27.49-10.32 0-15.508-6.92t-5.187-20.57q.009-13.664 5.247-20.609zm114.752-5.89h5.24q8.37 0 12.36 2.46t3.99 8.25q0 5.865-3.91 8.59t-12.1 2.73h-5.58v-22.03zm9.2 36.09l19.47 31.28h19.19q-5.58-8.025-23.99-35.52a26.3 26.3 0 0 0 11.22-8.78 21.655 21.655 0 0 0 3.96-12.8q0-12.33-7.98-18.38t-24.6-6.051h-23.77v81.531h17.3v-31.28h9.2zm75.2 31.28h30.51q13.845 0 21.9-6.24t8.06-17.4q0-7.86-3.43-12.61t-11.19-6.46v-.56a13.692 13.692 0 0 0 9.13-5.64q3.42-4.68 3.43-11.99 0-10.757-7.84-15.7t-25.19-4.936h-25.38v81.531zm17.29-67.37h9.1q7.41 0 10.85 2.04c2.28 1.36 3.43 3.6 3.43 6.72q0 5.025-3.15 7.2t-10.19 2.17h-10.04v-18.13zm10.71 31.85q14.505 0 14.51 10.15c0 3.76-1.14 6.54-3.41 8.37s-5.78 2.73-10.54 2.73h-11.27V1032h10.71zm92.33 35.52v-81.53h-17.29v81.531h17.29zm83.73-45.45l28.45-36.081h-19.19l-22.09 27.721-6.8 9.59v-37.31h-17.3v81.531h17.3v-29.11l7.3-5.24 21.37 34.35h19.63zm112.19 31.18h-29.68v-21.03h27.61v-14.16h-27.61v-17.91h29.68v-14.16h-46.97v81.531h46.97v-14.27zm87.19-21.84q-4.245-5.49-15.68-10.95a105.852 105.852 0 0 1-10.96-5.72 11.641 11.641 0 0 1-3.37-3.29 7.364 7.364 0 0 1-1.06-3.99 7.552 7.552 0 0 1 2.62-5.97q2.625-2.281 7.53-2.283a34.57 34.57 0 0 1 8.39 1.063 80.926 80.926 0 0 1 10.8 3.73l5.58-13.437a83.723 83.723 0 0 0-12.08-4.239 47.868 47.868 0 0 0-12.13-1.506q-12.945 0-20.28 6.191t-7.34 17.011a21.6 21.6 0 0 0 2.23 10.04 25.489 25.489 0 0 0 5.97 7.53 50.164 50.164 0 0 0 11.22 6.74 100.431 100.431 0 0 1 10.57 5.53 14.948 14.948 0 0 1 3.93 3.59 7.176 7.176 0 0 1 1.34 4.27 7.435 7.435 0 0 1-3.04 6.47q-3.045 2.175-8.73 2.17a41.507 41.507 0 0 1-10.46-1.5 96.318 96.318 0 0 1-13.97-5.19v16.06a51.956 51.956 0 0 0 23.09 4.91q14.175 0 22.12-6.36t7.95-17.4a21.456 21.456 0 0 0-4.236-13.469z"/></svg>